<svg id="圖層_1" data-name="圖層 1" xmlns="http://www.w3.org/2000/svg" viewBox="0 0 182 128"><defs><style>.cls-1{fill:#c0c3ca;}.cls-2{fill:#fff;}.cls-3{fill:#d60c18;}</style></defs><title>paywalllightbox0</title><ellipse class="cls-1" cx="94.4" cy="117.56" rx="86.89" ry="9.5"/><path class="cls-2" d="M156.62,59.3H145.18v-17h-107v69.34H131v2.31a5,5,0,0,0,5,5h20.66a5,5,0,0,0,5-5V64.3A5,5,0,0,0,156.62,59.3Z"/><path class="cls-3" d="M156.62,119.42H136a5.51,5.51,0,0,1-5.5-5.5v-1.81H37.68V41.77h108v17h10.94a5.51,5.51,0,0,1,5.5,5.5v49.62A5.51,5.51,0,0,1,156.62,119.42ZM38.68,111.11h92.78v2.81a4.51,4.51,0,0,0,4.5,4.5h20.66a4.51,4.51,0,0,0,4.5-4.5V64.3a4.51,4.51,0,0,0-4.5-4.5H144.68v-17h-106Z"/><path class="cls-2" d="M131.7,116.49H28.42a2.48,2.48,0,0,0,2.46,2.43H136A5,5,0,0,1,131.7,116.49Z"/><path class="cls-3" d="M136,119.42H30.88a3,3,0,0,1-2.95-2.92V116H132l.14.24a4.47,4.47,0,0,0,3.83,2.19ZM29,117a2,2,0,0,0,1.88,1.43H132.82a5.57,5.57,0,0,1-1.39-1.43Z"/><path class="cls-2" d="M131.7,116.49a4.91,4.91,0,0,1-.74-2.57v-2.28H28.42a2.47,2.47,0,0,0,0,4.93h0a.22.22,0,0,0,0-.08Z"/><path class="cls-3" d="M28.43,117.07a3,3,0,0,1,0-5.93h103v2.78a4.39,4.39,0,0,0,.67,2.31l.46.76H28.94v0Zm0-4.93a2,2,0,0,0-.28,3.91l.29-.06H130.89a5.33,5.33,0,0,1-.43-2.07v-1.78Z"/><path class="cls-3" d="M160.2,112.14H132.38V65.64H160.2Zm-26.82-1H159.2V66.64H133.38Z"/><rect class="cls-3" x="135.42" y="68.01" width="8.91" height="3.93"/><rect class="cls-3" x="56.8" y="57.98" width="10" height="5"/><circle class="cls-3" cx="45.84" cy="50.08" r="1.5"/><circle class="cls-3" cx="49.82" cy="50.08" r="1.5"/><circle class="cls-3" cx="53.8" cy="50.08" r="1.5"/><rect class="cls-3" x="42.16" y="52.21" width="99.04" height="1"/><path class="cls-3" d="M156.62,119.42H136a5.51,5.51,0,0,1-5.5-5.5V64.3a5.51,5.51,0,0,1,5.5-5.5h20.66a5.51,5.51,0,0,1,5.5,5.5v49.62A5.51,5.51,0,0,1,156.62,119.42ZM136,59.8a4.51,4.51,0,0,0-4.5,4.5v49.62a4.51,4.51,0,0,0,4.5,4.5h20.66a4.51,4.51,0,0,0,4.5-4.5V64.3a4.51,4.51,0,0,0-4.5-4.5Z"/><path class="cls-3" d="M146.29,118.1a2.72,2.72,0,1,1,2.72-2.72A2.72,2.72,0,0,1,146.29,118.1Zm0-4.44a1.72,1.72,0,1,0,1.72,1.72A1.72,1.72,0,0,0,146.29,113.66Z"/><rect class="cls-3" x="141.44" y="61.73" width="9.71" height="1.99" rx="0.99"/><polygon class="cls-3" points="130.96 107.13 41.66 107.13 41.66 46.75 141.7 46.75 141.7 59.3 140.7 59.3 140.7 47.75 42.66 47.75 42.66 106.13 130.96 106.13 130.96 107.13"/><path class="cls-3" d="M104.2,115.05H81.65a3.41,3.41,0,0,1-3.41-3.41h1a2.41,2.41,0,0,0,2.41,2.41H104.2a2.41,2.41,0,0,0,2.41-2.41h1A3.41,3.41,0,0,1,104.2,115.05Z"/><path class="cls-1" d="M130.9,54.16a12.42,12.42,0,0,1-1.81-1l.56-.83a12,12,0,0,0,1.67,1Z"/><path class="cls-1" d="M165,79.46h-4.17v-1H165Zm-8.33,0h-4.17v-1h4.17Zm12.51,0,0-1a10.66,10.66,0,0,0,3.87-.79l.38.92A11.8,11.8,0,0,1,169.16,79.46Zm7.87-3.2-.68-.73a11.11,11.11,0,0,0,2.36-3.18l.9.44A12,12,0,0,1,177,76.26Zm3.74-7.64-1-.09c0-.31,0-.62,0-.94v-1.5a10.67,10.67,0,0,0-.12-1.6l1-.14a11.14,11.14,0,0,1,.13,1.74v1.5C180.81,67.94,180.79,68.28,180.77,68.62Zm-2.37-7.87a10.75,10.75,0,0,0-2.55-3l.64-.77a11.79,11.79,0,0,1,2.78,3.31Zm-6-5a11,11,0,0,0-3.46-.56h-.48v-1h.48a11.84,11.84,0,0,1,3.78.62Zm-8.11-.56h-4.16v-1h4.16Zm-8.33,0h-4.17v-1H156Zm-8.33,0h-4.17v-1h4.17Zm-8.33,0h-3.51l-.69,0,.06-1,.63,0h3.51Z"/><rect class="cls-1" x="146.29" y="78.46" width="2" height="1"/><rect class="cls-1" x="25.7" y="74.04" width="2" height="1"/><path class="cls-1" d="M46.56,81.33a11.49,11.49,0,0,0-2-2.82l.72-.7a12.72,12.72,0,0,1,2.2,3.06Zm-4.8-4.91a11.26,11.26,0,0,0-3.26-1.17l.19-1a12.28,12.28,0,0,1,3.55,1.28ZM35,75H31.33V74H35Z"/><path class="cls-1" d="M48.82,86.54h-1a12.21,12.21,0,0,0-.16-1.91l1-.17A12,12,0,0,1,48.82,86.54Z"/><path class="cls-1" d="M92.05,25.11a10.62,10.62,0,0,0-.64-1.79l.91-.42a11.44,11.44,0,0,1,.7,2Z"/><rect class="cls-1" x="92.4" y="29.97" width="1" height="5.01"/><rect class="cls-1" x="92.4" y="40" width="1" height="2"/><rect class="cls-1" x="9.04" y="58.2" width="1" height="2"/><path class="cls-1" d="M9,54.31v-.08a11.81,11.81,0,0,1,.67-3.91l.94.34A10.8,10.8,0,0,0,10,54.23Zm3.44-6.87-.77-.64a11.83,11.83,0,0,1,3.06-2.63l.52.85A10.86,10.86,0,0,0,12.48,47.44Zm6.26-3.74-.19-1a10.82,10.82,0,0,1,2.21-.21h1.75l0,1H20.76A12.24,12.24,0,0,0,18.74,43.7Zm7.77-.94-.36-.93a10.64,10.64,0,0,0,3.19-1.89l.65.77A11.87,11.87,0,0,1,26.51,42.76Zm6.06-5.16-.87-.5A10.7,10.7,0,0,0,33,33.62l1,.17A11.61,11.61,0,0,1,32.57,37.6Z"/><path class="cls-1" d="M34.12,29.8h-1v-2a12.18,12.18,0,0,1,.18-2.08l1,.18a10.17,10.17,0,0,0-.17,1.9Z"/><path class="cls-1" d="M35.67,22.27l-.86-.52a11.69,11.69,0,0,1,2.82-3.17l.62.78A10.54,10.54,0,0,0,35.67,22.27Zm6-4.71-.3-1a11.75,11.75,0,0,1,3.44-.52h.75v1h-.75A10.4,10.4,0,0,0,41.69,17.56Zm28.41-.48H66v-1H70.1Zm-8.17,0H57.84v-1h4.09Zm-8.18,0H49.66v-1h4.09Z"/><rect class="cls-1" x="74.2" y="16.08" width="2" height="1"/><rect class="cls-2" x="76.2" y="15.7" width="5.83" height="4.25"/><path class="cls-3" d="M82.53,20.45H75.7V15.2h6.83Zm-5.83-1h4.83V16.2H76.7Z"/><rect class="cls-2" x="82.03" y="11.41" width="5.83" height="8.54"/><path class="cls-3" d="M88.36,20.45H81.53V10.91h6.83Zm-5.83-1h4.83V11.91H82.53Z"/><rect class="cls-2" x="93.7" y="6.38" width="5.83" height="13.57"/><path class="cls-3" d="M100,20.45H93.2V5.88H100Zm-5.83-1H99V6.88H94.2Z"/><rect class="cls-2" x="87.86" y="1.44" width="5.83" height="18.51"/><path class="cls-3" d="M94.2,20.45H87.36V.94H94.2Zm-5.84-1H93.2V1.94H88.36Z"/><rect class="cls-3" x="76.2" y="22" width="23.34" height="1.11"/><path class="cls-3" d="M100,23.61H75.7V21.5H100Zm-23.33-1H99V22.5H76.7Z"/><circle class="cls-2" cx="13.59" cy="71.91" r="12.39"/><path class="cls-3" d="M13.61,84.79A12.89,12.89,0,1,1,24,64.33h0A12.88,12.88,0,0,1,13.61,84.79Zm0-24.76a11.88,11.88,0,1,0,9.63,4.89A11.83,11.83,0,0,0,13.58,60Z"/><path class="cls-3" d="M3.57,79.69a.5.5,0,0,1-.29-.9l20-14.57a.5.5,0,0,1,.59.81l-20,14.56A.46.46,0,0,1,3.57,79.69Z"/><path class="cls-3" d="M20.87,82.43a.49.49,0,0,1-.4-.21l-14.56-20a.5.5,0,1,1,.8-.59l14.57,20a.5.5,0,0,1-.41.79Z"/><path class="cls-3" d="M20.87,82.43h-.05a16.92,16.92,0,0,1-15-20.65.51.51,0,0,1,.59-.38A.5.5,0,0,1,6.8,62,15.91,15.91,0,0,0,20.92,81.43a.5.5,0,0,1-.05,1Z"/><path class="cls-3" d="M1.38,71.48H1.24A.49.49,0,0,1,.75,71a.5.5,0,0,1,.5-.5h.13a17.39,17.39,0,0,0,10.29-3.33,17.6,17.6,0,0,0,5.7-7.08.5.5,0,0,1,.92.4,18.5,18.5,0,0,1-6,7.49A18.37,18.37,0,0,1,1.38,71.48Z"/><path class="cls-3" d="M10.38,84.37a.39.39,0,0,1-.18,0,.49.49,0,0,1-.28-.65,18.45,18.45,0,0,1,16-11.63.49.49,0,0,1,.53.47.52.52,0,0,1-.47.53,17.42,17.42,0,0,0-15.14,11A.51.51,0,0,1,10.38,84.37Z"/><path class="cls-3" d="M20.87,82.43h-.1a.51.51,0,0,1-.39-.59A15.93,15.93,0,0,0,6.26,62.38a.49.49,0,0,1-.45-.54.5.5,0,0,1,.55-.45,17,17,0,0,1,12.2,6.91A17,17,0,0,1,21.36,82,.5.5,0,0,1,20.87,82.43Z"/><path class="cls-3" d="M102.56,77.07H87.71V72a4,4,0,0,1,4-4h1.41a4,4,0,0,1,4,4v1.57a2,2,0,0,0,4,0V72a8,8,0,0,0-8-8H91.68a8,8,0,0,0-8,8v5.07H81a2.51,2.51,0,0,0-2.71,2.4h0v6.92a13.41,13.41,0,0,0,1.64,6.43A13.15,13.15,0,0,0,81.35,95a14.38,14.38,0,0,0,1.83,1.83,13.44,13.44,0,0,0,8.58,3.08h0a13.48,13.48,0,0,0,13.5-13.5V79.47A2.5,2.5,0,0,0,102.56,77.07ZM93.23,88.72v2.1a1,1,0,0,1-2,0v-2.1a2.74,2.74,0,1,1,2,0Z"/><path class="cls-3" d="M154.11,87.21H143.35V83.53a2.89,2.89,0,0,1,2.88-2.88h1a2.89,2.89,0,0,1,2.88,2.88v1.14a1.45,1.45,0,1,0,2.9,0V83.53a5.79,5.79,0,0,0-5.78-5.78h-1a5.79,5.79,0,0,0-5.78,5.78v3.68h-2a1.82,1.82,0,0,0-2,1.74h0v5a9.85,9.85,0,0,0,2.24,6.22,10.44,10.44,0,0,0,1.33,1.33,9.77,9.77,0,0,0,6.22,2.23h0A9.8,9.8,0,0,0,156.08,94V89A1.82,1.82,0,0,0,154.11,87.21Zm-6.76,8.45v1.51a.72.72,0,0,1-1.44,0V95.66a2,2,0,1,1,1.44,0Z"/></svg>